<svg xmlns="http://www.w3.org/2000/svg" viewBox="0 0 64 64" width="64" height="64" fill="none" stroke="#00B3C0" stroke-width="2.6" stroke-linecap="round" stroke-linejoin="round">
  <!-- Row 1: top -->
  <circle cx="32" cy="10" r="2.6" />
  <line x1="22" y1="10" x2="26" y2="10" />
  <line x1="38" y1="10" x2="42" y2="10" />

  <!-- Row 2 -->
  <path d="M24 21h16" />
  <circle cx="24" cy="21" r="3.6" />
  <circle cx="40" cy="21" r="3.6" />
  <line x1="12" y1="21" x2="18" y2="21" />
  <line x1="46" y1="21" x2="52" y2="21" />

  <!-- Row 3: widest -->
  <path d="M18 32h28" />
  <circle cx="18" cy="32" r="3.6" />
  <circle cx="32" cy="32" r="3.6" />
  <circle cx="46" cy="32" r="3.6" />
  <line x1="6" y1="32" x2="12" y2="32" />
  <line x1="52" y1="32" x2="58" y2="32" />

  <!-- Row 4 -->
  <path d="M24 43h16" />
  <circle cx="24" cy="43" r="3.6" />
  <circle cx="40" cy="43" r="3.6" />
  <line x1="12" y1="43" x2="18" y2="43" />
  <line x1="46" y1="43" x2="52" y2="43" />

  <!-- Row 5: bottom -->
  <circle cx="32" cy="54" r="2.6" />
  <line x1="22" y1="54" x2="26" y2="54" />
  <line x1="38" y1="54" x2="42" y2="54" />
</svg>
