<svg xmlns="http://www.w3.org/2000/svg" viewBox="0 0 200 200" fill="none" stroke="#FFFFFF" stroke-width="3" stroke-linecap="round" stroke-linejoin="round">
  
  <circle cx="100" cy="28" r="7"></circle>
  <line x1="68" y1="28" x2="80" y2="28"></line>
  <line x1="56" y1="28" x2="62" y2="28"></line>
  <line x1="120" y1="28" x2="132" y2="28"></line>
  <line x1="138" y1="28" x2="144" y2="28"></line>

  
  <path d="M70 60 a14 14 0 1 1 28 0 a14 14 0 1 1 -28 0 M102 60 a14 14 0 1 1 28 0 a14 14 0 1 1 -28 0" stroke-linejoin="round"></path>
  <path d="M84 60 q9 -5 18 0"></path>
  <path d="M84 60 q9 5 18 0"></path>
  <line x1="36" y1="60" x2="56" y2="60"></line>
  <line x1="20" y1="60" x2="28" y2="60"></line>
  <line x1="144" y1="60" x2="164" y2="60"></line>
  <line x1="172" y1="60" x2="180" y2="60"></line>

  
  <path d="M52 100 a14 14 0 1 1 28 0 a14 14 0 1 1 -28 0 M84 100 a14 14 0 1 1 28 0 a14 14 0 1 1 -28 0 M116 100 a14 14 0 1 1 28 0 a14 14 0 1 1 -28 0"></path>
  <line x1="18" y1="100" x2="38" y2="100"></line>
  <line x1="6" y1="100" x2="12" y2="100"></line>
  <line x1="162" y1="100" x2="182" y2="100"></line>
  <line x1="188" y1="100" x2="194" y2="100"></line>

  
  <path d="M70 140 a14 14 0 1 1 28 0 a14 14 0 1 1 -28 0 M102 140 a14 14 0 1 1 28 0 a14 14 0 1 1 -28 0"></path>
  <line x1="36" y1="140" x2="56" y2="140"></line>
  <line x1="20" y1="140" x2="28" y2="140"></line>
  <line x1="144" y1="140" x2="164" y2="140"></line>
  <line x1="172" y1="140" x2="180" y2="140"></line>

  
  <circle cx="100" cy="172" r="7"></circle>
  <line x1="68" y1="172" x2="80" y2="172"></line>
  <line x1="56" y1="172" x2="62" y2="172"></line>
  <line x1="120" y1="172" x2="132" y2="172"></line>
  <line x1="138" y1="172" x2="144" y2="172"></line>
</svg>